<svg width="18" height="19" viewBox="0 0 18 19" fill="none" xmlns="http://www.w3.org/2000/svg">
    <g id="Icon/22/question">
        <path id="Vector" d="M3.75 17H14.25C14.6642 17 15 16.6642 15 16.25V5.75H11.25V2H3.75C3.33579 2 3 2.33579 3 2.75V16.25C3 16.6642 3.33579 17 3.75 17Z"  stroke-width="1.5" stroke-linecap="round" stroke-linejoin="round"/>
        <path id="Vector_2" d="M11.25 2L15 5.75"  stroke-width="1.5" stroke-linecap="round" stroke-linejoin="round"/>
        <path id="Vector_3" d="M9 12.125V11C9.82841 11 10.5 10.2445 10.5 9.3125C10.5 8.38051 9.82841 7.625 9 7.625C8.17159 7.625 7.5 8.38051 7.5 9.3125"  stroke-width="1.5" stroke-linecap="round" stroke-linejoin="round"/>
        <path id="Vector_4" d="M9.1875 14.1875C9.1875 14.291 9.10355 14.375 9 14.375C8.89645 14.375 8.8125 14.291 8.8125 14.1875C8.8125 14.084 8.89645 14 9 14C9.10355 14 9.1875 14.084 9.1875 14.1875Z" fill="#333333"  stroke-width="1.5"/>
    </g>
</svg>